<svg xmlns="http://www.w3.org/2000/svg" viewBox="0 0 800 533">
  <rect width="800" height="533" fill="#222222"/>

  <!-- Switch unit at top -->
  <rect x="220" y="87" width="360" height="36" rx="4" fill="rgba(255,255,255,0.04)" stroke="rgba(255,255,255,0.12)" stroke-width="1"/>
  <line x1="235" y1="105" x2="568" y2="105" stroke="rgba(255,255,255,0.07)" stroke-width="1"/>
  <circle cx="245" cy="105" r="3" fill="rgba(80,200,120,0.55)"/>
  <circle cx="258" cy="105" r="3" fill="rgba(80,200,120,0.55)"/>
  <circle cx="271" cy="105" r="3" fill="rgba(80,200,120,0.55)"/>
  <circle cx="284" cy="105" r="3" fill="rgba(255,255,255,0.25)"/>
  <circle cx="297" cy="105" r="3" fill="rgba(80,200,120,0.55)"/>
  <circle cx="310" cy="105" r="3" fill="rgba(80,200,120,0.55)"/>
  <circle cx="323" cy="105" r="3" fill="rgba(80,200,120,0.55)"/>
  <circle cx="336" cy="105" r="3" fill="rgba(80,200,120,0.55)"/>
  <circle cx="555" cy="105" r="4" fill="rgba(255,255,255,0.30)"/>

  <!-- Rack outline -->
  <rect x="212" y="132" width="376" height="244" rx="6" fill="none" stroke="rgba(255,255,255,0.08)" stroke-width="1.5"/>

  <!-- Rack unit 1 -->
  <rect x="220" y="145" width="360" height="48" rx="4" fill="rgba(255,255,255,0.04)" stroke="rgba(255,255,255,0.10)" stroke-width="1"/>
  <rect x="232" y="157" width="80" height="24" rx="2" fill="rgba(255,255,255,0.03)" stroke="rgba(255,255,255,0.07)" stroke-width="1"/>
  <rect x="318" y="157" width="80" height="24" rx="2" fill="rgba(255,255,255,0.03)" stroke="rgba(255,255,255,0.07)" stroke-width="1"/>
  <circle cx="534" cy="169" r="5" fill="rgba(80,200,120,0.65)"/>
  <circle cx="550" cy="169" r="5" fill="rgba(80,200,120,0.65)"/>
  <circle cx="566" cy="169" r="5" fill="rgba(255,255,255,0.25)"/>

  <!-- Rack unit 2 -->
  <rect x="220" y="203" width="360" height="48" rx="4" fill="rgba(255,255,255,0.04)" stroke="rgba(255,255,255,0.10)" stroke-width="1"/>
  <rect x="232" y="215" width="80" height="24" rx="2" fill="rgba(255,255,255,0.03)" stroke="rgba(255,255,255,0.07)" stroke-width="1"/>
  <rect x="318" y="215" width="80" height="24" rx="2" fill="rgba(255,255,255,0.03)" stroke="rgba(255,255,255,0.07)" stroke-width="1"/>
  <circle cx="534" cy="227" r="5" fill="rgba(80,200,120,0.65)"/>
  <circle cx="550" cy="227" r="5" fill="rgba(80,200,120,0.65)"/>
  <circle cx="566" cy="227" r="5" fill="rgba(255,255,255,0.25)"/>

  <!-- Rack unit 3 -->
  <rect x="220" y="261" width="360" height="48" rx="4" fill="rgba(255,255,255,0.04)" stroke="rgba(255,255,255,0.10)" stroke-width="1"/>
  <rect x="232" y="273" width="120" height="24" rx="2" fill="rgba(255,255,255,0.03)" stroke="rgba(255,255,255,0.07)" stroke-width="1"/>
  <circle cx="534" cy="285" r="5" fill="rgba(80,200,120,0.65)"/>
  <circle cx="550" cy="285" r="5" fill="rgba(255,255,255,0.25)"/>
  <circle cx="566" cy="285" r="5" fill="rgba(255,130,60,0.45)"/>

  <!-- Rack unit 4 (NAS) -->
  <rect x="220" y="319" width="360" height="48" rx="4" fill="rgba(255,255,255,0.03)" stroke="rgba(255,255,255,0.07)" stroke-width="1"/>
  <rect x="232" y="331" width="32" height="24" rx="2" fill="rgba(255,255,255,0.05)" stroke="rgba(255,255,255,0.08)" stroke-width="1"/>
  <rect x="270" y="331" width="32" height="24" rx="2" fill="rgba(255,255,255,0.05)" stroke="rgba(255,255,255,0.08)" stroke-width="1"/>
  <rect x="308" y="331" width="32" height="24" rx="2" fill="rgba(255,255,255,0.05)" stroke="rgba(255,255,255,0.08)" stroke-width="1"/>
  <rect x="346" y="331" width="32" height="24" rx="2" fill="rgba(255,255,255,0.02)" stroke="rgba(255,255,255,0.05)" stroke-width="1"/>
  <circle cx="534" cy="343" r="5" fill="rgba(80,200,120,0.55)"/>
  <circle cx="550" cy="343" r="5" fill="rgba(80,200,120,0.35)"/>
</svg>
