<svg xmlns="http://www.w3.org/2000/svg" viewBox="0 0 800 533">
  <rect width="800" height="533" fill="#222222"/>

  <!-- Row 1 -->
  <rect x="170" y="130" width="100" height="80" rx="6" fill="rgba(255,255,255,0.04)" stroke="rgba(255,255,255,0.15)" stroke-width="1.2"/>
  <text x="220" y="168" text-anchor="middle" font-family="monospace" font-size="9" fill="rgba(255,255,255,0.55)">jellyfin</text>
  <circle cx="248" cy="143" r="4" fill="rgba(80,200,120,0.65)"/>

  <rect x="280" y="130" width="100" height="80" rx="6" fill="rgba(255,255,255,0.04)" stroke="rgba(255,255,255,0.15)" stroke-width="1.2"/>
  <text x="330" y="168" text-anchor="middle" font-family="monospace" font-size="9" fill="rgba(255,255,255,0.55)">nextcloud</text>
  <circle cx="358" cy="143" r="4" fill="rgba(80,200,120,0.65)"/>

  <rect x="390" y="130" width="100" height="80" rx="6" fill="rgba(255,255,255,0.04)" stroke="rgba(255,255,255,0.15)" stroke-width="1.2"/>
  <text x="440" y="168" text-anchor="middle" font-family="monospace" font-size="9" fill="rgba(255,255,255,0.55)">authentik</text>
  <circle cx="468" cy="143" r="4" fill="rgba(80,200,120,0.65)"/>

  <rect x="500" y="130" width="100" height="80" rx="6" fill="rgba(255,255,255,0.04)" stroke="rgba(255,255,255,0.15)" stroke-width="1.2"/>
  <text x="550" y="168" text-anchor="middle" font-family="monospace" font-size="9" fill="rgba(255,255,255,0.55)">immich</text>
  <circle cx="578" cy="143" r="4" fill="rgba(255,255,255,0.35)"/>

  <!-- Row 2 -->
  <rect x="170" y="225" width="100" height="80" rx="6" fill="rgba(255,255,255,0.04)" stroke="rgba(255,255,255,0.15)" stroke-width="1.2"/>
  <text x="220" y="263" text-anchor="middle" font-family="monospace" font-size="9" fill="rgba(255,255,255,0.55)">bookstack</text>
  <circle cx="248" cy="238" r="4" fill="rgba(80,200,120,0.65)"/>

  <rect x="280" y="225" width="100" height="80" rx="6" fill="rgba(255,255,255,0.04)" stroke="rgba(255,255,255,0.12)" stroke-width="1.2"/>
  <text x="330" y="263" text-anchor="middle" font-family="monospace" font-size="9" fill="rgba(255,255,255,0.45)">radarr</text>
  <circle cx="358" cy="238" r="4" fill="rgba(255,200,60,0.55)"/>

  <rect x="390" y="225" width="100" height="80" rx="6" fill="rgba(255,255,255,0.04)" stroke="rgba(255,255,255,0.15)" stroke-width="1.2"/>
  <text x="440" y="263" text-anchor="middle" font-family="monospace" font-size="9" fill="rgba(255,255,255,0.55)">grafana</text>
  <circle cx="468" cy="238" r="4" fill="rgba(80,200,120,0.65)"/>

  <rect x="500" y="225" width="100" height="80" rx="6" fill="rgba(255,255,255,0.04)" stroke="rgba(255,255,255,0.12)" stroke-width="1.2"/>
  <text x="550" y="263" text-anchor="middle" font-family="monospace" font-size="9" fill="rgba(255,255,255,0.45)">actual</text>
  <circle cx="578" cy="238" r="4" fill="rgba(255,200,60,0.55)"/>

  <!-- Row 3 (dimmed / infra) -->
  <rect x="225" y="320" width="100" height="80" rx="6" fill="rgba(255,255,255,0.02)" stroke="rgba(255,255,255,0.07)" stroke-width="1"/>
  <text x="275" y="358" text-anchor="middle" font-family="monospace" font-size="9" fill="rgba(255,255,255,0.22)">caddy</text>

  <rect x="335" y="320" width="100" height="80" rx="6" fill="rgba(255,255,255,0.02)" stroke="rgba(255,255,255,0.07)" stroke-width="1"/>
  <text x="385" y="358" text-anchor="middle" font-family="monospace" font-size="9" fill="rgba(255,255,255,0.22)">prowlarr</text>

  <rect x="445" y="320" width="100" height="80" rx="6" fill="rgba(255,255,255,0.02)" stroke="rgba(255,255,255,0.07)" stroke-width="1"/>
  <text x="495" y="358" text-anchor="middle" font-family="monospace" font-size="9" fill="rgba(255,255,255,0.22)">prometheus</text>
</svg>
